<svg width="4679" height="4678" xmlns="http://www.w3.org/2000/svg" xmlns:xlink="http://www.w3.org/1999/xlink" xml:space="preserve" overflow="hidden"><g transform="translate(-259 -259)"><path d="M1624 1624 3573 1624 3573 3573 1624 3573ZM1867.62 1867.62 1867.62 3329.38 3329.38 3329.38 3329.38 1867.62Z" fill="#AF0DAF" fill-rule="evenodd"/><path d="M2598.04 260C3889.81 260 4937 1307.21 4937 2599L4547.17 2599 4547.17 2598.71C4547.17 1522.22 3674.52 649.547 2598.04 649.547L2598 649.548 2598 260.001 2598.04 260Z" fill="#4B3366" fill-rule="evenodd"/><path d="M260.008 2598 649.674 2598 649.673 2598.04C649.673 3640.75 1468.32 4492.2 2497.78 4544.4L2598 4546.93 2598 4937 2477.72 4933.96C1242.37 4871.32 260 3849.58 260 2598.32L260.008 2598Z" fill="#4B3366" fill-rule="evenodd"/><path d="M260 260 1559 260 260 1559Z" fill="#4B3366" fill-rule="evenodd"/><path d="M4937 4937 3638 4937 4937 3638Z" fill="#4B3366" fill-rule="evenodd"/><path d="M2988.28 2987.99 4937.05 2987.99 4693.44 3231.6 3231.88 3231.6 3231.88 4693.16 2988.28 4936.76 2988.28 2987.99Z" fill="#5800BD" fill-rule="evenodd"/><path d="M2208.65 2208.36 259.88 2208.36 503.483 1964.76 1965.04 1964.76 1965.04 503.197 2208.65 259.595 2208.65 2208.36Z" fill="#5800BD" fill-rule="evenodd"/></g></svg>